<?xml version="1.0" ?>
<svg xmlns="http://www.w3.org/2000/svg" viewBox="250.658 81.155 123.263 80.363" >
  <defs>
    <style type="text/css">
			path {
				fill: #CCCCCC;
				fill-opacity: 1;
				stroke:white;
				stroke-opacity: 1;
				stroke-width:0.5;
			}
            .ilce &gt; path {
                fill: #13665a;
            }
		</style>
  </defs>
  <g class="ulke" id="turkiye" transform="matrix(1, 0, 0, 1, -172.761566, 13.635749)">
    <g class="sehir" id="sivas">
      <g class="ilce" id="sivas-akincilar">
        <title>Akıncılar</title>
        <path d="M 531.2496 91.9711 527.0818 90.4438 525.8409 89.9424 525.2858 89.6039 525.1105 89.0587 524.4848 88.1015 524.0894 87.8082 523.3275 87.5297 522.881 87.2753 522.5295 86.9729 522.4195 86.698 522.639 86.375 523.2656 85.9987 523.5492 85.2871 524.3066 84.119 527.1783 81.8512 527.8539 82.2425 529.7448 82.9701 530.9755 83.7011 533.3303 84.6237 534.0195 84.6581 534.9621 84.3572 535.5459 84.9729 535.6207 85.3513 534.7821 86.3714 534.6288 87.7772 534.4856 88.2166 533.866 89.1859 533.0986 89.9701 532.3655 90.419 531.7868 90.9122 531.2496 91.9711 Z"></path>
      </g>
      <g class="ilce" id="sivas-altinyayla">
        <title>Altınyayla</title>
        <path d="M 472.3923 119.4806 471.6496 119.6511 470.7705 119.9782 469.6359 120.191 469.0558 120.501 468.581 120.911 468.1248 121.5937 467.2667 122.461 466.1322 124.089 465.1556 123.5674 463.5768 123.0349 458.5971 123.0032 459.4581 121.507 459.5413 120.9409 459.4041 120.5056 458.4088 118.9607 458.324 117.7047 458.521 117.1183 459.2853 116.3124 460.6445 116.1398 461.526 115.8404 462.7886 115.586 464.0494 115.0944 465.0175 114.5007 465.9112 114.1248 466.4703 113.7916 467.0413 113.8918 468.3046 114.3531 469.2575 115.0083 471.5717 118.6049 472.3923 119.4806 Z"></path>
      </g>
      <g class="ilce" id="sivas-divrigi">
        <title>Divriği</title>
        <path d="M 516.7241 127.395 514.9433 127.4519 513.4017 127.8467 511.9562 127.8641 512.0679 126.999 512.0964 124.6774 511.9535 123.5563 510.7326 121.6121 510.1567 121.0519 509.5447 120.6903 506.5219 119.5665 506.0341 119.1981 505.8283 118.6134 505.885 115.4542 505.6798 114.7382 505.2857 114.4371 504.8758 114.3284 504.1649 114.3585 503.4727 114.5475 503.1249 114.5294 501.418 113.9369 499.8002 113.7627 498.7269 113.3735 498.4501 113.0451 498.5922 112.6578 499.1726 112.2094 499.9496 111.8186 500.447 111.827 500.9353 111.7355 503.5534 110.7117 509.0894 106.4838 509.5448 106.2071 510.9068 105.6613 512.1815 105.2053 512.6644 105.1237 517.3883 105.0646 519.1348 104.588 519.316 104.4961 519.3887 104.3387 521.2863 104.0615 522.3449 103.7381 523.7871 103.5703 524.8423 103.243 525.6775 103.1633 527.5453 103.24 529.7274 103.9233 529.5543 105.3206 529.0328 106.4834 529.0052 107.9877 529.127 108.4671 530.0947 110.4921 530.341 111.7342 530.7686 112.5398 530.9758 113.2073 530.8556 114.5607 530.8161 122.129 530.707 122.5223 530.105 123.4989 529.233 124.5052 527.7203 124.5065 527.0016 124.6318 525.4956 125.2641 524.9458 125.6943 524.5388 126.1644 523.2861 126.8365 521.704 127.3649 516.7241 127.395 Z"></path>
      </g>
      <g class="ilce" id="sivas-dogansar">
        <title>Doğanşar</title>
        <path d="M 499.6738 81.3461 499.3178 81.4874 499.2084 81.7443 499.6133 82.531 497.8784 83.1475 497.1694 83.2485 496.5933 83.1784 495.5439 82.8572 493.171 82.7421 491.9677 82.3956 490.9199 82.3089 491.4444 81.1754 491.6937 79.9323 492.4817 78.7802 493.6101 78.2246 494.6054 77.6069 496.1593 77.19 498.8866 79.3465 499.5434 80.4247 499.6738 81.3461 Z"></path>
      </g>
      <g class="ilce" id="sivas-gemerek">
        <title>Gemerek</title>
        <path d="M 433.9733 109.4058 435.1773 109.4996 436.4312 109.9503 436.8407 110.2322 437.0319 110.528 437.0803 110.8674 436.9743 111.3134 436.6092 111.8737 436.489 112.2373 436.4658 112.8754 436.6368 113.3448 437.4032 113.9982 438.4085 114.4103 438.9985 114.7727 441.8101 117.0116 442.2814 117.7012 443.212 118.6594 444.4497 120.599 444.5559 121.0571 444.5648 122.357 444.686 122.7715 444.9523 122.9863 446.3259 123.5944 446.7888 123.9372 444.6678 124.7698 444.0165 124.901 435.9759 124.87 434.6188 124.9249 433.6268 124.8792 433.2308 124.7828 431.7482 124.1583 429.3026 122.2428 428.6649 121.3656 427.2631 120.1235 426.4495 118.8201 424.6327 118.5046 423.4193 117.8581 424.0515 116.701 424.4769 116.2625 425.1303 115.8369 426.2421 115.3607 428.6641 113.548 429.6599 113.1369 430.3257 112.7175 431.6569 111.6615 432.3582 110.7143 433.3472 109.89 433.9733 109.4058 Z"></path>
      </g>
      <g class="ilce" id="sivas-golova">
        <title>Gölova</title>
        <path d="M 534.9621 84.3572 535.9767 83.8984 536.8358 83.7287 538.233 83.8641 540.4943 84.6999 541.4889 84.8825 542.3729 85.1737 543.9879 85.3695 545.2246 86.0636 546.6824 86.6642 546.447 88.0013 546.0461 88.8256 545.7963 89.8691 545.5315 90.1039 544.6202 90.5033 543.605 90.6026 537.4262 90.5751 536.7537 90.5035 535.5425 90.154 533.0986 89.9701 533.866 89.1859 534.4856 88.2166 534.6288 87.7772 534.7821 86.3714 535.6207 85.3513 535.5459 84.9729 534.9621 84.3572 Z"></path>
      </g>
      <g class="ilce" id="sivas-gurun">
        <title>Gürün</title>
        <path d="M 464.535 140.9294 464.6756 140.4895 465.0681 139.8086 465.3031 139.0359 465.6479 138.4615 465.9304 137.5821 466.9086 136.0408 467.8155 133.7068 468.2047 133.0252 468.4427 132.253 469.4209 130.7117 469.659 129.9396 470.1879 128.8179 470.8815 128.9681 473.9911 130.1702 475.1203 130.3941 476.0104 130.6923 476.9686 130.7679 480.7634 130.7725 481.5307 130.6228 482.3307 130.06 482.6099 129.6408 482.8663 128.7683 483.4772 127.997 484.0238 127.8438 485.1379 127.8457 485.8962 127.9913 488.2643 128.9244 489.7138 129.9091 490.2453 130.1796 490.8634 130.2813 492.9578 130.338 494.1383 130.6937 496.1064 131.1098 495.8204 132.0154 495.8557 133.4071 496.9145 135.1828 497.2137 136.0559 497.5543 136.6302 497.6696 137.1266 497.5967 137.8865 496.7375 139.6323 496.2152 139.7271 495.3653 140.2913 494.8011 140.8017 494.1956 141.6714 493.0778 142.5531 491.8517 143.0958 490.3425 144.1334 489.2328 144.6093 486.7019 146.494 486.2171 146.6947 485.2438 146.8848 484.8527 147.1449 483.3235 147.2409 478.3917 147.2536 477.7044 147.351 476.8009 147.6398 475.3392 147.8825 474.4739 147.2019 473.8515 146.8357 472.5956 146.3645 471.4651 146.1424 470.5849 145.8407 469.9897 145.7813 469.094 145.8453 467.9101 146.2049 465.9795 146.3355 465.0857 146.6312 463.9576 146.8554 463.0762 147.1595 461.704 147.3465 462.5531 145.6129 462.7894 143.8776 464.3403 141.4671 464.535 140.9294 Z"></path>
      </g>
      <g class="ilce" id="sivas-hafik">
        <title>Hafik</title>
        <path d="M 499.6133 82.531 499.6732 83.5532 499.4666 84.1112 498.1204 84.9301 497.2275 85.3106 496.8121 85.5825 495.4128 87.681 495.2691 88.5533 495.2938 92.4452 495.4153 92.9302 495.8568 93.8644 495.8768 96.1922 496.0154 96.8122 496.4648 97.3249 497.4117 98.0181 499.5855 98.8708 500.1788 99.3132 500.6112 100.2451 500.456 100.5298 499.8407 101.1272 499.7319 101.4467 499.7775 101.6658 500.0887 101.9974 500.9153 102.3422 501.3912 102.7137 502.0827 103.7844 502.1426 104.5744 502.0167 104.8731 501.8271 105.0201 500.9373 105.2158 499.6728 105.6704 498.3219 106.4563 496.9167 106.9576 495.2827 107.1301 494.4023 107.5104 494.1802 107.7676 492.7961 108.0987 491.6574 108.7177 491.4539 107.7727 491.2943 107.4483 489.8972 106.2065 489.4207 105.5192 488.5573 104.6543 486.1487 100.952 484.8365 99.9551 481.4235 98.6526 480.869 98.3081 480.4229 97.8768 480.2377 97.3168 480.2889 96.6127 481.4479 94.7569 481.5311 94.0572 481.4074 93.4828 480.0061 91.3486 479.1652 90.6532 477.891 89.844 477.8104 89.5405 477.8604 89.2204 478.2828 88.4772 478.131 87.9433 476.8184 86.8109 476.0779 85.8451 473.8949 83.9858 473.8195 83.6769 473.2351 82.7203 471.9085 81.57 471.5101 81.112 472.722 80.4964 475.2108 79.5197 476.0715 79.4153 476.6349 79.5213 479.8725 80.7784 482.4376 80.9027 483.9352 81.2988 486.1887 81.3877 487.3733 81.7361 488.8431 81.9074 489.8688 82.2274 490.9199 82.3089 491.9677 82.3956 493.171 82.7421 495.5439 82.8572 496.5933 83.1784 497.1694 83.2485 497.8784 83.1475 499.6133 82.531 Z"></path>
      </g>
      <g class="ilce" id="sivas-imranli">
        <title>İmranlı</title>
        <path d="M 529.7274 103.9233 527.5453 103.24 525.6775 103.1633 524.8423 103.243 523.7871 103.5703 522.3449 103.7381 521.2863 104.0615 519.3887 104.3387 519.092 103.5052 518.9642 102.4574 518.7824 102.0387 518.2037 101.3806 517.8395 101.2685 516.5913 101.128 516.0793 100.7823 515.9221 100.4717 515.7379 99.3379 514.1012 96.7091 514.011 96.0876 513.9985 93.5125 513.8698 93.0326 513.4819 92.3611 513.4495 91.7937 513.5943 91.4558 513.8763 91.1512 515.3555 90.0989 517.8444 88.0575 518.5121 87.739 518.8259 87.7679 519.0566 87.9206 520.3783 90.0447 520.7359 90.3658 521.091 90.5195 521.9679 90.6739 522.802 90.9606 523.3731 90.9525 523.9514 90.6608 525.2858 89.6039 525.8409 89.9424 527.0818 90.4438 531.2496 91.9711 530.4134 93.0449 530.1047 93.9178 529.7043 94.5916 529.6929 95.272 530.0853 95.7249 530.7611 95.9256 531.6625 95.9029 532.9843 95.5097 534.9127 95.357 536.2136 95.0133 536.9047 95.201 537.3279 95.5156 537.5293 95.8054 537.511 96.113 537.1013 96.698 536.2268 97.1395 535.5389 97.3264 533.7662 97.3831 533.226 97.566 532.8342 98.0114 532.7671 98.8173 532.1012 98.9787 531.7006 99.2612 530.6751 100.8075 529.7717 101.7637 529.6145 102.5726 529.7274 103.9233 Z"></path>
      </g>
      <g class="ilce" id="sivas-kangal">
        <title>Kangal</title>
        <path d="M 466.1322 124.089 467.2667 122.461 468.1248 121.5937 468.581 120.911 469.0558 120.501 469.6359 120.191 470.7705 119.9782 471.6496 119.6511 472.3923 119.4806 472.8092 119.4309 473.9257 119.0645 475.0262 118.5198 475.2129 118.1081 475.2267 116.2522 475.3908 115.674 476.216 114.5027 478.6337 112.634 480.2816 111.9639 481.9051 111.7866 482.7896 111.494 483.9245 111.2782 487.0379 110.078 487.7332 109.9303 488.4292 109.7837 490.417 109.0085 491.6574 108.7177 492.7961 108.0987 494.1802 107.7676 494.4833 108.7196 494.0641 109.5924 494.0065 110.041 494.099 110.3756 494.4271 110.7197 496.0519 111.3336 498.6306 111.4324 499.9496 111.8186 499.1726 112.2094 498.5922 112.6578 498.4501 113.0451 498.7269 113.3735 499.8002 113.7627 501.418 113.9369 503.1249 114.5294 503.4727 114.5475 504.1649 114.3585 504.8758 114.3284 505.2857 114.4371 505.6798 114.7382 505.885 115.4542 505.8283 118.6134 506.0341 119.1981 506.5219 119.5665 509.5447 120.6903 510.1567 121.0519 510.7326 121.6121 511.9535 123.5563 512.0964 124.6774 512.0679 126.999 511.9562 127.8641 510.2423 128.4483 505.7689 130.2002 504.722 130.3069 503.023 130.2367 499.7981 130.2821 499.1439 130.2023 498.1358 129.8674 497.5837 129.8496 497.1211 130.0357 496.3606 130.9858 496.1064 131.1098 494.1383 130.6937 492.9578 130.338 490.8634 130.2813 490.2453 130.1796 489.7138 129.9091 488.2643 128.9244 485.8962 127.9913 485.1379 127.8457 484.0238 127.8438 483.4772 127.997 482.8663 128.7683 482.6099 129.6408 482.3307 130.06 481.5307 130.6228 480.7634 130.7725 476.9686 130.7679 476.0104 130.6923 475.1203 130.3941 473.9911 130.1702 470.8815 128.9681 470.1879 128.8179 470.5508 127.7576 469.3971 125.8504 468.7521 125.2508 467.8934 124.6493 466.1322 124.089 Z"></path>
      </g>
      <g class="ilce" id="sivas-koyulhisar">
        <title>Koyulhisar</title>
        <path d="M 496.1593 77.19 495.9378 76.3498 495.9535 75.4501 496.2298 74.9189 496.8864 74.4852 497.0995 74.2245 497.1938 73.7548 497.1948 72.1944 497.3245 71.694 497.6685 71.2762 498.4712 70.6461 499.8154 69.9425 500.4335 71.1343 502.4473 74.2132 502.8618 74.4928 503.9709 74.9297 504.3907 75.0213 504.9853 75.0175 507.3875 74.3588 509.6611 72.6422 510.3785 72.2468 511.9971 72.0645 513.1635 71.7155 514.832 71.6477 515.5356 71.4566 519.7769 68.2249 520.9536 67.5197 522.0724 69.2889 522.2031 70.2164 521.6371 70.323 521.1312 70.5682 519.9623 71.5073 517.9163 74.6069 517.3092 75.5812 517.2324 75.9204 517.3337 76.475 517.6546 76.992 517.5924 77.3701 516.5597 77.9662 515.9796 77.6366 515.771 77.6715 515.5553 77.8381 515.5313 78.0807 515.9336 78.4504 516.0827 78.8877 516.45 79.4494 516.5435 79.8496 516.4452 80.3558 516.025 80.8208 513.6853 82.6573 512.9026 83.813 512.2394 85.0148 510.0892 84.0426 507.8816 82.4664 506.4951 81.9343 505.501 81.751 504.1593 81.3732 499.6738 81.3461 499.5434 80.4247 498.8866 79.3465 496.1593 77.19 Z"></path>
      </g>
      <g class="ilce" id="sivas-merkez">
        <title>Merkez</title>
        <path d="M 487.7332 109.9303 487.463 109.2794 486.7103 108.6807 485.9965 108.4884 484.1802 108.4071 482.7806 107.9077 482.1675 107.5421 480.4531 106.253 479.0869 105.7045 478.537 105.6563 477.5409 105.9629 476.9298 106.0336 473.7059 106.0318 472.927 106.0942 471.845 106.522 471.5542 106.722 470.9822 107.5328 470.6659 108.5161 469.4919 110.3632 467.284 112.273 466.655 113.2516 466.4703 113.7916 465.9112 114.1248 465.0175 114.5007 464.0494 115.0944 462.7886 115.586 461.526 115.8404 460.6445 116.1398 459.2853 116.3124 458.2919 115.6921 457.7869 115.0833 457.7013 114.4751 457.729 112.8474 457.5938 112.3802 457.1465 111.9834 456.3866 111.698 455.7826 111.3365 455.4866 111.0698 455.3181 110.7476 455.3216 110.5202 455.4915 110.2077 456.7344 109.1938 457.0304 108.7884 457.1422 107.8481 457.001 107.0324 456.2175 105.9026 454.967 105.2542 454.2618 104.5831 455.5914 104.0129 456.434 103.2687 457.6632 102.7779 459.4189 102.5584 460.4461 102.2386 462.0754 102.0706 463.1929 101.5499 463.3699 101.1551 463.4581 99.4012 464.1071 98.3155 464.6978 97.7396 466.5661 96.3271 466.984 95.8321 466.991 95.3949 466.5554 94.5145 466.5059 93.6848 466.6035 93.1039 467.0699 92.202 467.1789 90.9087 467.3221 90.4685 467.8706 89.5909 468.347 89.1215 468.9455 88.7426 469.859 88.377 470.5371 87.8835 471.7309 86.1102 472.5743 85.259 473.0598 84.5852 473.8949 83.9858 476.0779 85.8451 476.8184 86.8109 478.131 87.9433 478.2828 88.4772 477.8604 89.2204 477.8104 89.5405 477.891 89.844 479.1652 90.6532 480.0061 91.3486 481.4074 93.4828 481.5311 94.0572 481.4479 94.7569 480.2889 96.6127 480.2377 97.3168 480.4229 97.8768 480.869 98.3081 481.4235 98.6526 484.8365 99.9551 486.1487 100.952 488.5573 104.6543 489.4207 105.5192 489.8972 106.2065 491.2943 107.4483 491.4539 107.7727 491.6574 108.7177 490.417 109.0085 488.4292 109.7837 487.7332 109.9303 Z"></path>
      </g>
      <g class="ilce" id="sivas-sarkisla">
        <title>Şarkışla</title>
        <path d="M 458.5971 123.0032 456.8216 122.9855 456.023 123.0562 452.6385 124.3401 450.3411 124.8968 449.6112 124.8301 447.6353 124.0644 446.7888 123.9372 446.3259 123.5944 444.9523 122.9863 444.686 122.7715 444.5648 122.357 444.5559 121.0571 444.4497 120.599 443.212 118.6594 442.2814 117.7012 441.8101 117.0116 438.9985 114.7727 438.4085 114.4103 437.4032 113.9982 436.6368 113.3448 436.4658 112.8754 436.489 112.2373 436.6092 111.8737 436.9743 111.3134 437.0803 110.8674 437.0319 110.528 436.8407 110.2322 436.4312 109.9503 435.1773 109.4996 433.9733 109.4058 433.9865 108.4452 434.0988 107.989 434.7173 107.0189 435.6626 106.0799 436.2973 105.0992 436.5892 103.7585 437.114 102.6234 437.7401 102.1392 440.4656 102.1329 441.2864 102.2018 442.8266 102.7796 444.1383 103.7042 444.6707 103.9733 445.4496 104.0804 447.0646 104.0764 447.6726 104.1801 448.0086 104.3705 448.2386 104.6355 448.3994 105.6113 448.5382 105.8987 449.482 106.3256 449.8494 106.2986 450.814 105.9508 452.0413 105.2023 453.289 104.7194 454.2618 104.5831 454.967 105.2542 456.2175 105.9026 457.001 107.0324 457.1422 107.8481 457.0304 108.7884 456.7344 109.1938 455.4915 110.2077 455.3216 110.5202 455.3181 110.7476 455.4866 111.0698 455.7826 111.3365 456.3866 111.698 457.1465 111.9834 457.5938 112.3802 457.729 112.8474 457.7013 114.4751 457.7869 115.0833 458.2919 115.6921 459.2853 116.3124 458.521 117.1183 458.324 117.7047 458.4088 118.9607 459.4041 120.5056 459.5413 120.9409 459.4581 121.507 458.5971 123.0032 Z"></path>
      </g>
      <g class="ilce" id="sivas-susehri">
        <title>Suşehri</title>
        <path d="M 515.3555 90.0989 514.2873 89.2548 513.5935 88.1974 513.2732 87.2162 512.3119 85.676 512.2394 85.0148 512.9026 83.813 513.6853 82.6573 516.025 80.8208 516.4452 80.3558 516.5435 79.8496 516.45 79.4494 516.0827 78.8877 515.9336 78.4504 515.5313 78.0807 515.5553 77.8381 515.771 77.6715 515.9796 77.6366 516.5597 77.9662 517.5924 77.3701 517.6546 76.992 517.3337 76.475 517.2324 75.9204 517.3092 75.5812 517.9163 74.6069 519.9623 71.5073 521.1312 70.5682 521.6371 70.323 522.2031 70.2164 522.7265 71.3504 522.9275 72.4742 523.3429 73.2908 523.5514 74.4115 524.0002 75.3411 524.1328 77.2089 524.6366 78.3723 524.7603 80.2285 525.1476 80.6775 526.2413 81.187 527.1783 81.8512 524.3066 84.119 523.5492 85.2871 523.2656 85.9987 522.639 86.375 522.4195 86.698 522.5295 86.9729 522.881 87.2753 523.3275 87.5297 524.0894 87.8082 524.4848 88.1015 525.1105 89.0587 525.2858 89.6039 523.9514 90.6608 523.3731 90.9525 522.802 90.9606 521.9679 90.6739 521.091 90.5195 520.7359 90.3658 520.3783 90.0447 519.0566 87.9206 518.8259 87.7679 518.5121 87.739 517.8444 88.0575 515.3555 90.0989 Z"></path>
      </g>
      <g class="ilce" id="sivas-ulas">
        <title>Ulaş</title>
        <path d="M 466.4703 113.7916 466.655 113.2516 467.284 112.273 469.4919 110.3632 470.6659 108.5161 470.9822 107.5328 471.5542 106.722 471.845 106.522 472.927 106.0942 473.7059 106.0318 476.9298 106.0336 477.5409 105.9629 478.537 105.6563 479.0869 105.7045 480.4531 106.253 482.1675 107.5421 482.7806 107.9077 484.1802 108.4071 485.9965 108.4884 486.7103 108.6807 487.463 109.2794 487.7332 109.9303 487.0379 110.078 483.9245 111.2782 482.7896 111.494 481.9051 111.7866 480.2816 111.9639 478.6337 112.634 476.216 114.5027 475.3908 115.674 475.2267 116.2522 475.2129 118.1081 475.0262 118.5198 473.9257 119.0645 472.8092 119.4309 472.3923 119.4806 471.5717 118.6049 469.2575 115.0083 468.3046 114.3531 467.0413 113.8918 466.4703 113.7916 Z"></path>
      </g>
      <g class="ilce" id="sivas-yildizeli">
        <title>Yıldızeli</title>
        <path d="M 437.7401 102.1392 437.0573 101.7284 436.3121 101.4699 436.5236 100.2605 436.3773 99.2675 435.8114 98.6995 435.3269 98.4102 434.5783 98.1123 434.1343 97.7186 433.4844 96.1651 433.36 95.2502 433.1795 94.8274 432.8107 94.5171 430.1051 93.197 429.7825 92.8621 429.6349 92.4406 430.1425 91.9174 430.626 90.9487 434.7393 91.0002 436.1323 90.9421 437.3589 90.6002 438.9546 90.3933 440.6701 89.6287 441.5014 89.9297 443.9534 90.4858 448.7447 90.5147 449.5183 90.783 449.8761 90.7642 451.5738 90.1447 452.7121 89.9261 453.5912 89.6221 454.5902 89.4451 455.4691 89.1424 456.4703 88.9663 457.8612 88.4634 458.8645 87.9756 459.4923 87.1971 460.83 85.0508 460.8174 84.3694 460.3463 83.4848 460.3988 82.8035 461.1766 81.6426 462.5416 80.5399 462.8975 79.9077 463.4207 79.3806 464.0448 79.8658 467.1023 79.8842 467.5868 79.9428 468.639 80.2617 470.2333 80.4687 471.5101 81.112 471.9085 81.57 473.2351 82.7203 473.8195 83.6769 473.8949 83.9858 473.0598 84.5852 472.5743 85.259 471.7309 86.1102 470.5371 87.8835 469.859 88.377 468.9455 88.7426 468.347 89.1215 467.8706 89.5909 467.3221 90.4685 467.1789 90.9087 467.0699 92.202 466.6035 93.1039 466.5059 93.6848 466.5554 94.5145 466.991 95.3949 466.984 95.8321 466.5661 96.3271 464.6978 97.7396 464.1071 98.3155 463.4581 99.4012 463.3699 101.1551 463.1929 101.5499 462.0754 102.0706 460.4461 102.2386 459.4189 102.5584 457.6632 102.7779 456.434 103.2687 455.5914 104.0129 454.2618 104.5831 453.289 104.7194 452.0413 105.2023 450.814 105.9508 449.8494 106.2986 449.482 106.3256 448.5382 105.8987 448.3994 105.6113 448.2386 104.6355 448.0086 104.3705 447.6726 104.1801 447.0646 104.0764 445.4496 104.0804 444.6707 103.9733 444.1383 103.7042 442.8266 102.7796 441.2864 102.2018 440.4656 102.1329 437.7401 102.1392 Z"></path>
      </g>
      <g class="ilce" id="sivas-zara">
        <title>Zara</title>
        <path d="M 499.6133 82.531 499.2084 81.7443 499.3178 81.4874 499.6738 81.3461 504.1593 81.3732 505.501 81.751 506.4951 81.9343 507.8816 82.4664 510.0892 84.0426 512.2394 85.0148 512.3119 85.676 513.2732 87.2162 513.5935 88.1974 514.2873 89.2548 515.3555 90.0989 513.8763 91.1512 513.5943 91.4558 513.4495 91.7937 513.4819 92.3611 513.8698 93.0326 513.9985 93.5125 514.011 96.0876 514.1012 96.7091 515.7379 99.3379 515.9221 100.4717 516.0793 100.7823 516.5913 101.128 517.8395 101.2685 518.2037 101.3806 518.7824 102.0387 518.9642 102.4574 519.092 103.5052 519.3887 104.3387 519.316 104.4961 519.1348 104.588 517.3883 105.0646 512.6644 105.1237 512.1815 105.2053 510.9068 105.6613 509.5448 106.2071 509.0894 106.4838 503.5534 110.7117 500.9353 111.7355 500.447 111.827 499.9496 111.8186 498.6306 111.4324 496.0519 111.3336 494.4271 110.7197 494.099 110.3756 494.0065 110.041 494.0641 109.5924 494.4833 108.7196 494.1802 107.7676 494.4023 107.5104 495.2827 107.1301 496.9167 106.9576 498.3219 106.4563 499.6728 105.6704 500.9373 105.2158 501.8271 105.0201 502.0167 104.8731 502.1426 104.5744 502.0827 103.7844 501.3912 102.7137 500.9153 102.3422 500.0887 101.9974 499.7775 101.6658 499.7319 101.4467 499.8407 101.1272 500.456 100.5298 500.6112 100.2451 500.1788 99.3132 499.5855 98.8708 497.4117 98.0181 496.4648 97.3249 496.0154 96.8122 495.8768 96.1922 495.8568 93.8644 495.4153 92.9302 495.2938 92.4452 495.2691 88.5533 495.4128 87.681 496.8121 85.5825 497.2275 85.3106 498.1204 84.9301 499.4666 84.1112 499.6732 83.5532 499.6133 82.531 Z"></path>
      </g>
      <title>Sivas</title>
    </g>
  </g>
</svg>   

